<?xml version="1.0" standalone="no"?><!DOCTYPE svg PUBLIC "-//W3C//DTD SVG 1.1//EN" "http://www.w3.org/Graphics/SVG/1.1/DTD/svg11.dtd"><svg t="1625328567613" class="icon" viewBox="0 0 1024 1024" version="1.1" xmlns="http://www.w3.org/2000/svg" p-id="2064" width="32" height="32" xmlns:xlink="http://www.w3.org/1999/xlink"><defs><style type="text/css"></style></defs><path d="M660.48 583.8848m-281.4464 0a281.4464 281.4464 0 1 0 562.8928 0 281.4464 281.4464 0 1 0-562.8928 0Z" fill="#bbeb88" p-id="2065"></path><path d="M798.3616 839.8336H698.88c-16.9472 0-30.72-13.7728-30.72-30.72s13.7728-30.72 30.72-30.72h99.4304c77.2096 0 140.032-62.8224 140.032-140.032S875.52 498.3296 798.3104 498.3296h-5.0176c-16.7424 0-30.4128-13.4144-30.72-30.1568-2.56-135.6288-114.9952-245.9648-250.624-245.9648S263.936 332.5952 261.376 468.224a30.73024 30.73024 0 0 1-30.72 30.1568h-5.0176c-77.2096 0-140.032 62.8224-140.032 140.032s62.8224 140.032 140.032 140.032h90.8288c16.9472 0 30.72 13.7728 30.72 30.72s-13.7728 30.72-30.72 30.72H225.6384c-111.104 0-201.472-90.368-201.472-201.472 0-103.0144 77.7216-188.2112 177.6128-200.0896 7.8336-71.2192 39.7312-137.1648 91.4432-188.0064C351.9488 192.6144 429.6704 160.8192 512 160.8192s160 31.7952 218.7264 89.4976c51.712 50.8416 83.6096 116.7872 91.4432 188.0064 99.8912 11.8272 177.6128 97.024 177.6128 200.0896 0.0512 111.0528-90.368 201.4208-201.4208 201.4208z" fill="currentColor" p-id="2066"></path><path d="M643.0208 723.968a30.73024 30.73024 0 0 0-43.4688-0.256l-56.6784 56.0128v-230.912c0-16.9472-13.7728-30.72-30.72-30.72s-30.72 13.7728-30.72 30.72v231.168l-56.6272-56.2176a30.77632 30.77632 0 0 0-43.4688 0.1536 30.77632 30.77632 0 0 0 0.1536 43.4688l108.7488 107.9808a30.80192 30.80192 0 0 0 43.264 0.0512l109.2096-107.9808a30.68928 30.68928 0 0 0 0.3072-43.4688z" fill="currentColor" p-id="2067"></path></svg>