<?xml version="1.0" standalone="no"?><!DOCTYPE svg PUBLIC "-//W3C//DTD SVG 1.1//EN" "http://www.w3.org/Graphics/SVG/1.1/DTD/svg11.dtd"><svg t="1625328589573" class="icon" viewBox="0 0 1024 1024" version="1.1" xmlns="http://www.w3.org/2000/svg" p-id="2230" width="32" height="32" xmlns:xlink="http://www.w3.org/1999/xlink"><defs><style type="text/css"></style></defs><path d="M582.144 571.7504m-281.4464 0a281.4464 281.4464 0 1 0 562.8928 0 281.4464 281.4464 0 1 0-562.8928 0Z" fill="#bbeb88" p-id="2231"></path><path d="M513.5872 954.4192c-243.968 0-442.4192-198.4512-442.4192-442.4192s198.4512-442.4192 442.4192-442.4192 442.4192 198.4512 442.4192 442.4192-198.4512 442.4192-442.4192 442.4192z m0-823.3984C303.5136 131.0208 132.608 301.9264 132.608 512s170.9056 380.9792 380.9792 380.9792 380.9792-170.9056 380.9792-380.9792-170.9056-380.9792-380.9792-380.9792z" fill="currentColor" p-id="2232"></path><path d="M513.5872 629.76c-16.9472 0-30.72-13.7728-30.72-30.72v-40.1408c0-31.8976 21.76-60.3648 52.8896-69.1712 36.9152-10.496 61.0304-44.6464 58.6752-83.1488-2.4576-39.8848-35.6864-73.1136-75.5712-75.5712-22.7328-1.4336-44.2368 6.3488-60.672 21.8112-16.4864 15.4624-25.5488 36.4544-25.5488 59.0336 0 16.9472-13.7728 30.72-30.72 30.72s-30.72-13.7728-30.72-30.72c0-39.168 16.384-76.9536 44.9024-103.7824 28.928-27.1872 66.7136-40.8064 106.5472-38.3488 71.424 4.4544 128.6656 61.6448 133.12 133.12 4.1472 66.5088-39.2704 127.8976-103.2192 146.0736-4.9152 1.3824-8.2432 5.4272-8.2432 10.0864V599.04c0 16.9472-13.7216 30.72-30.72 30.72z" fill="currentColor" p-id="2233"></path><path d="M513.5872 716.6976m-42.1376 0a42.1376 42.1376 0 1 0 84.2752 0 42.1376 42.1376 0 1 0-84.2752 0Z" fill="currentColor" p-id="2234"></path></svg>