<?xml version="1.0" standalone="no"?><!DOCTYPE svg PUBLIC "-//W3C//DTD SVG 1.1//EN" "http://www.w3.org/Graphics/SVG/1.1/DTD/svg11.dtd"><svg t="1625344226382" class="icon" viewBox="0 0 1024 1024" version="1.1" xmlns="http://www.w3.org/2000/svg" p-id="1566" width="32" height="32" xmlns:xlink="http://www.w3.org/1999/xlink"><defs><style type="text/css"></style></defs><path d="M627.5072 660.7872m-287.1296 0a287.1296 287.1296 0 1 0 574.2592 0 287.1296 287.1296 0 1 0-574.2592 0Z" fill="#bbeb88" p-id="1567"></path><path d="M892.5184 210.2272h-186.2656l-36.9664-111.7696c-9.984-30.208-40.9088-50.5344-76.8512-50.5344h-169.984c-35.4816 0-66.2528 19.9168-76.544 49.6128l-39.168 112.64H121.4464c-16.9472 0-30.72 13.7728-30.72 30.72s13.7728 30.72 30.72 30.72h771.072c16.9472 0 30.72-13.7728 30.72-30.72s-13.7728-30.6688-30.72-30.6688zM403.968 117.7088c1.2288-3.4816 8.3456-8.3456 18.5344-8.3456h169.9328c10.1376 0 17.408 4.9664 18.5344 8.3968l29.3376 88.6272H373.1456l30.8224-88.6784zM792.2176 314.3168c-16.9472 0-30.72 13.7728-30.72 30.72V861.184c0 29.44-23.9616 53.4528-53.4528 53.4528h-423.936c-29.44 0-53.4528-23.9616-53.4528-53.4528V345.0368c0-16.9472-13.7728-30.72-30.72-30.72s-30.72 13.7728-30.72 30.72V861.184c0 63.3344 51.5584 114.8928 114.8928 114.8928h423.936c63.3344 0 114.8928-51.5584 114.8928-114.8928V345.0368c0-16.9472-13.7728-30.72-30.72-30.72z" fill="currentColor" p-id="1568"></path><path d="M397.3632 810.9056c-16.9472 0-30.72-13.7728-30.72-30.72V439.04c0-16.9472 13.7728-30.72 30.72-30.72s30.72 13.7728 30.72 30.72v341.0944a30.72 30.72 0 0 1-30.72 30.7712z" fill="currentColor" p-id="1569"></path><path d="M593.4592 810.9056c-16.9472 0-30.72-13.7728-30.72-30.72V439.04c0-16.9472 13.7728-30.72 30.72-30.72s30.72 13.7728 30.72 30.72v341.0944c0 16.9984-13.7728 30.7712-30.72 30.7712z" fill="currentColor" p-id="1570"></path></svg>