<?xml version="1.0" standalone="no"?><!DOCTYPE svg PUBLIC "-//W3C//DTD SVG 1.1//EN" "http://www.w3.org/Graphics/SVG/1.1/DTD/svg11.dtd"><svg t="1625330705358" class="icon" viewBox="0 0 1024 1024" version="1.1" xmlns="http://www.w3.org/2000/svg" p-id="2405" width="32" height="32" xmlns:xlink="http://www.w3.org/1999/xlink"><defs><style type="text/css"></style></defs><path d="M620.4416 602.9824m-281.4464 0a281.4464 281.4464 0 1 0 562.8928 0 281.4464 281.4464 0 1 0-562.8928 0Z" fill="#bbeb88" p-id="2406"></path><path d="M899.7888 218.7264l-110.848-111.36c-20.992-21.0944-50.0736-33.1776-79.8208-33.1776H220.3648c-62.1056 0-112.64 50.5344-112.64 112.64v655.7696c0 62.1056 50.5344 112.64 112.64 112.64h599.6032c62.1056 0 112.64-50.5344 112.64-112.64V298.1888c0-29.952-11.6736-58.1632-32.8192-79.4624zM673.792 135.6288v269.056c0 28.2112-22.9888 51.2-51.2 51.2H396.8512c-28.2112 0-51.2-22.9888-51.2-51.2V135.6288h328.1408z m197.376 706.9696c0 28.2112-22.9888 51.2-51.2 51.2H220.3648c-28.2112 0-51.2-22.9888-51.2-51.2V186.8288c0-28.2112 22.9888-51.2 51.2-51.2h63.8464v269.056c0 62.1056 50.5344 112.64 112.64 112.64h225.7408c62.1056 0 112.64-50.5344 112.64-112.64V142.848c3.6864 2.2016 7.168 4.7616 10.1888 7.8336l110.848 111.36a50.816 50.816 0 0 1 14.8992 36.096v544.4608z" fill="#ffffff" p-id="2407"></path><path d="M562.0224 295.7824m-36.608 0a36.608 36.608 0 1 0 73.216 0 36.608 36.608 0 1 0-73.216 0Z" fill="#ffffff" p-id="2408"></path></svg>