<?xml version="1.0" standalone="no"?><!DOCTYPE svg PUBLIC "-//W3C//DTD SVG 1.1//EN" "http://www.w3.org/Graphics/SVG/1.1/DTD/svg11.dtd"><svg t="1625328551990" class="icon" viewBox="0 0 1024 1024" version="1.1" xmlns="http://www.w3.org/2000/svg" p-id="1898" width="32" height="32" xmlns:xlink="http://www.w3.org/1999/xlink"><defs><style type="text/css"></style></defs><path d="M662.784 583.8848m-281.4464 0a281.4464 281.4464 0 1 0 562.8928 0 281.4464 281.4464 0 1 0-562.8928 0Z" fill="#bbeb88" p-id="1899"></path><path d="M800.6144 839.8336h-99.4304c-16.9472 0-30.72-13.7728-30.72-30.72s13.7728-30.72 30.72-30.72h99.4304c77.2096 0 140.032-62.8224 140.032-140.032s-62.8224-140.032-140.032-140.032h-5.0176c-16.7424 0-30.4128-13.4144-30.72-30.1568-2.56-135.6288-114.9952-245.9648-250.624-245.9648S266.24 332.5952 263.68 468.224a30.73024 30.73024 0 0 1-30.72 30.1568h-5.0176c-77.2096 0-140.032 62.8224-140.032 140.032s62.8224 140.032 140.032 140.032h90.8288c16.9472 0 30.72 13.7728 30.72 30.72s-13.7728 30.72-30.72 30.72H227.9424c-111.104 0-201.472-90.368-201.472-201.472 0-103.0144 77.7216-188.2112 177.6128-200.0896 7.8336-71.2192 39.7312-137.1648 91.4432-188.0064 58.7264-57.7024 136.3968-89.4976 218.7264-89.4976s160 31.7952 218.7264 89.4976c51.712 50.8416 83.6096 116.7872 91.4432 188.0064 99.8912 11.8272 177.6128 97.024 177.6128 200.0896 0.0512 111.0528-90.3168 201.4208-201.4208 201.4208z" fill="currentColor" p-id="1900"></path><path d="M645.0688 634.9312l-109.2096-107.9808a30.76608 30.76608 0 0 0-43.264 0.0512l-108.7488 107.9808a30.73024 30.73024 0 1 0 43.3152 43.6224l56.6272-56.2176v231.168c0 16.9472 13.7728 30.72 30.72 30.72s30.72-13.7728 30.72-30.72v-230.912l56.6784 56.0128a30.73024 30.73024 0 0 0 43.4688-0.256 30.78144 30.78144 0 0 0-0.3072-43.4688z" fill="currentColor" p-id="1901"></path></svg>